<?xml version="1.0" encoding="utf-8"?><!-- Uploaded to: SVG Repo, www.svgrepo.com, Generator: SVG Repo Mixer Tools -->
<svg fill="#000000" width="800px" height="800px" viewBox="0 0 24 24" id="cutting-board-2" data-name="Flat Line" xmlns="http://www.w3.org/2000/svg" class="icon flat-line"><path id="secondary" d="M17,10V7a1,1,0,0,0-1-1H4A1,1,0,0,0,3,7V17a1,1,0,0,0,1,1H16a1,1,0,0,0,1-1V14h2a2,2,0,0,0,2-2h0a2,2,0,0,0-2-2Z" style="fill: rgb(44, 169, 188); stroke-width: 2;"></path><path id="primary" d="M17,10V7a1,1,0,0,0-1-1H4A1,1,0,0,0,3,7V17a1,1,0,0,0,1,1H16a1,1,0,0,0,1-1V14h2a2,2,0,0,0,2-2h0a2,2,0,0,0-2-2Z" style="fill: none; stroke: rgb(0, 0, 0); stroke-linecap: round; stroke-linejoin: round; stroke-width: 2;"></path></svg>